<mxfile host="app.diagrams.net" modified="2024-06-28T12:12:25.717Z" agent="Mozilla/5.0 (Windows NT 10.0; Win64; x64; rv:109.0) Gecko/20100101 Firefox/115.0" etag="LTlhywSFVJ0r11w5G-WX" version="24.6.3" type="github">
  <diagram name="第 1 页" id="AkDRrB8Qmdcw_YGz7c0-">
    <mxGraphModel dx="2856" dy="887" grid="1" gridSize="10" guides="1" tooltips="1" connect="1" arrows="1" fold="1" page="1" pageScale="1" pageWidth="1169" pageHeight="827" math="0" shadow="0">
      <root>
        <mxCell id="0" />
        <mxCell id="1" parent="0" />
        <mxCell id="dgUnhgY431Tlw95HEv-T-2" value="" style="shape=table;startSize=0;container=1;collapsible=0;childLayout=tableLayout;" parent="1" vertex="1">
          <mxGeometry x="-1040" y="80" width="410" height="40" as="geometry" />
        </mxCell>
        <mxCell id="dgUnhgY431Tlw95HEv-T-3" value="" style="shape=tableRow;horizontal=0;startSize=0;swimlaneHead=0;swimlaneBody=0;strokeColor=inherit;top=0;left=0;bottom=0;right=0;collapsible=0;dropTarget=0;fillColor=none;points=[[0,0.5],[1,0.5]];portConstraint=eastwest;" parent="dgUnhgY431Tlw95HEv-T-2" vertex="1">
          <mxGeometry width="410" height="40" as="geometry" />
        </mxCell>
        <mxCell id="dgUnhgY431Tlw95HEv-T-4" value="&lt;div&gt;AC&lt;/div&gt;" style="shape=partialRectangle;html=1;whiteSpace=wrap;connectable=0;strokeColor=inherit;overflow=hidden;fillColor=none;top=0;left=0;bottom=0;right=0;pointerEvents=1;" parent="dgUnhgY431Tlw95HEv-T-3" vertex="1">
          <mxGeometry width="103" height="40" as="geometry">
            <mxRectangle width="103" height="40" as="alternateBounds" />
          </mxGeometry>
        </mxCell>
        <mxCell id="dgUnhgY431Tlw95HEv-T-5" value="TC" style="shape=partialRectangle;html=1;whiteSpace=wrap;connectable=0;strokeColor=inherit;overflow=hidden;fillColor=none;top=0;left=0;bottom=0;right=0;pointerEvents=1;" parent="dgUnhgY431Tlw95HEv-T-3" vertex="1">
          <mxGeometry x="103" width="102" height="40" as="geometry">
            <mxRectangle width="102" height="40" as="alternateBounds" />
          </mxGeometry>
        </mxCell>
        <mxCell id="dgUnhgY431Tlw95HEv-T-6" value="SS" style="shape=partialRectangle;html=1;whiteSpace=wrap;connectable=0;strokeColor=inherit;overflow=hidden;fillColor=none;top=0;left=0;bottom=0;right=0;pointerEvents=1;" parent="dgUnhgY431Tlw95HEv-T-3" vertex="1">
          <mxGeometry x="205" width="103" height="40" as="geometry">
            <mxRectangle width="103" height="40" as="alternateBounds" />
          </mxGeometry>
        </mxCell>
        <mxCell id="dgUnhgY431Tlw95HEv-T-7" value="ID" style="shape=partialRectangle;html=1;whiteSpace=wrap;connectable=0;strokeColor=inherit;overflow=hidden;fillColor=none;top=0;left=0;bottom=0;right=0;pointerEvents=1;" parent="dgUnhgY431Tlw95HEv-T-3" vertex="1">
          <mxGeometry x="308" width="102" height="40" as="geometry">
            <mxRectangle width="102" height="40" as="alternateBounds" />
          </mxGeometry>
        </mxCell>
        <mxCell id="dgUnhgY431Tlw95HEv-T-8" value="&lt;div&gt;CTL&lt;/div&gt;" style="text;strokeColor=none;fillColor=none;html=1;align=center;verticalAlign=middle;whiteSpace=wrap;rounded=0;fontSize=16;" parent="1" vertex="1">
          <mxGeometry x="-1050" y="40" width="60" height="30" as="geometry" />
        </mxCell>
        <mxCell id="0pSZkKqaXTHVHzEpPIFr-1" value="runState" style="text;strokeColor=none;fillColor=none;html=1;align=center;verticalAlign=middle;whiteSpace=wrap;rounded=0;fontSize=16;" vertex="1" parent="1">
          <mxGeometry x="-1042" y="290" width="60" height="30" as="geometry" />
        </mxCell>
        <mxCell id="0pSZkKqaXTHVHzEpPIFr-5" style="edgeStyle=orthogonalEdgeStyle;rounded=0;orthogonalLoop=1;jettySize=auto;html=1;" edge="1" parent="1" source="0pSZkKqaXTHVHzEpPIFr-2">
          <mxGeometry relative="1" as="geometry">
            <mxPoint x="-899" y="370" as="targetPoint" />
          </mxGeometry>
        </mxCell>
        <mxCell id="0pSZkKqaXTHVHzEpPIFr-15" style="edgeStyle=orthogonalEdgeStyle;rounded=0;orthogonalLoop=1;jettySize=auto;html=1;entryX=0;entryY=0.5;entryDx=0;entryDy=0;" edge="1" parent="1" source="0pSZkKqaXTHVHzEpPIFr-2" target="0pSZkKqaXTHVHzEpPIFr-8">
          <mxGeometry relative="1" as="geometry" />
        </mxCell>
        <mxCell id="0pSZkKqaXTHVHzEpPIFr-2" value="0" style="strokeWidth=2;html=1;shape=mxgraph.flowchart.start_1;whiteSpace=wrap;" vertex="1" parent="1">
          <mxGeometry x="-1049" y="340" width="100" height="60" as="geometry" />
        </mxCell>
        <mxCell id="0pSZkKqaXTHVHzEpPIFr-6" value="STARTED" style="rounded=1;whiteSpace=wrap;html=1;" vertex="1" parent="1">
          <mxGeometry x="-904" y="340" width="120" height="60" as="geometry" />
        </mxCell>
        <mxCell id="0pSZkKqaXTHVHzEpPIFr-8" value="RSLOCK" style="whiteSpace=wrap;html=1;rounded=1;" vertex="1" parent="1">
          <mxGeometry x="-904" y="450" width="120" height="60" as="geometry" />
        </mxCell>
        <mxCell id="0pSZkKqaXTHVHzEpPIFr-10" value="" style="shape=table;startSize=0;container=1;collapsible=0;childLayout=tableLayout;" vertex="1" parent="1">
          <mxGeometry x="-1040" y="180" width="206" height="40" as="geometry" />
        </mxCell>
        <mxCell id="0pSZkKqaXTHVHzEpPIFr-11" value="" style="shape=tableRow;horizontal=0;startSize=0;swimlaneHead=0;swimlaneBody=0;strokeColor=inherit;top=0;left=0;bottom=0;right=0;collapsible=0;dropTarget=0;fillColor=none;points=[[0,0.5],[1,0.5]];portConstraint=eastwest;" vertex="1" parent="0pSZkKqaXTHVHzEpPIFr-10">
          <mxGeometry width="206" height="40" as="geometry" />
        </mxCell>
        <mxCell id="0pSZkKqaXTHVHzEpPIFr-12" value="mode" style="shape=partialRectangle;html=1;whiteSpace=wrap;connectable=0;strokeColor=inherit;overflow=hidden;fillColor=none;top=0;left=0;bottom=0;right=0;pointerEvents=1;" vertex="1" parent="0pSZkKqaXTHVHzEpPIFr-11">
          <mxGeometry width="103" height="40" as="geometry">
            <mxRectangle width="103" height="40" as="alternateBounds" />
          </mxGeometry>
        </mxCell>
        <mxCell id="0pSZkKqaXTHVHzEpPIFr-13" value="paralleism" style="shape=partialRectangle;html=1;whiteSpace=wrap;connectable=0;strokeColor=inherit;overflow=hidden;fillColor=none;top=0;left=0;bottom=0;right=0;pointerEvents=1;" vertex="1" parent="0pSZkKqaXTHVHzEpPIFr-11">
          <mxGeometry x="103" width="103" height="40" as="geometry">
            <mxRectangle width="103" height="40" as="alternateBounds" />
          </mxGeometry>
        </mxCell>
        <mxCell id="0pSZkKqaXTHVHzEpPIFr-14" value="config" style="text;strokeColor=none;fillColor=none;html=1;align=center;verticalAlign=middle;whiteSpace=wrap;rounded=0;fontSize=16;" vertex="1" parent="1">
          <mxGeometry x="-1047" y="140" width="60" height="30" as="geometry" />
        </mxCell>
        <mxCell id="0pSZkKqaXTHVHzEpPIFr-16" value="scanState" style="text;strokeColor=none;fillColor=none;html=1;align=center;verticalAlign=middle;whiteSpace=wrap;rounded=0;fontSize=16;" vertex="1" parent="1">
          <mxGeometry x="-1042" y="540" width="80" height="30" as="geometry" />
        </mxCell>
      </root>
    </mxGraphModel>
  </diagram>
</mxfile>
